# xmcd
#
# Track frame offsets: 
#        150
#        26754
#        48909
#        67402
#        84307
#        103019
#        126662
#        144276
#        163780
#        188264
#        213796
#        238274
#        260111
#        284149
#        301671
#
# Disc length: 4236 seconds
#
# Revision: 2
# Processed by: cddbd v1.5.1PL2 Copyright (c) Steve Scherf et al.
# Submitted via: ExactAudioCopy v0.95b2
#
DISCID=df108a0f
DTITLE=Portishead - Only the Lonely
DYEAR=1997
DGENRE=
TTITLE0=Humming (Roseland Theatre, NY 7-24-1997)
TTITLE1=Cowboys (Roseland Theatre, NY 7-24-1997)
TTITLE2=All Mine (Roseland Theatre, NY 7-24-1997)
TTITLE3=Half Day Closing (Roseland Theatre, NY 7-24-1997)
TTITLE4=Over (Roseland Theatre, NY 7-24-1997)
TTITLE5=Only You (Roseland Theatre, NY 7-24-1997)
TTITLE6=Sour Times (Roseland Theatre, NY 7-24-1997)
TTITLE7=Seven Months (Roseland Theatre, NY 7-24-1997)
TTITLE8=Mysterons (Roseland Theatre, NY 7-24-1997)
TTITLE9=Glory Box (Roseland Theatre, NY 7-24-1997)
TTITLE10=Roads (Roseland Theatre, NY 7-24-1997)
TTITLE11=Strangers (Roseland Theatre, NY 7-24-1997)
TTITLE12=Only You (Later with Jools Holland, Nov 1997)
TTITLE13=Over (Later with Jools Holland, Nov 1997)
TTITLE14=Half Day Closing (Later with Jools Holland, Nov 1997)
EXTD=tracks 1-12 roesland teatre\nnew york summer 97\ntracks 13-15 lat
EXTD=er with\njools holland november 97\n\nhttp://www.portishead.co.uk
EXTD=\n\nbeth has a great voice
EXTT0=
EXTT1=
EXTT2=
EXTT3=
EXTT4=
EXTT5=
EXTT6=
EXTT7=
EXTT8=
EXTT9=
EXTT10=
EXTT11=
EXTT12=
EXTT13=
EXTT14=
PLAYORDER=
